<svg xmlns="http://www.w3.org/2000/svg" xmlns:xlink="http://www.w3.org/1999/xlink" width="576pt" height="73pt" viewBox="0.00 0.00 576.00 73.00">
<g id="graph0" class="graph" transform="scale(0.326749 0.326749) rotate(0) translate(4 220.1)">
<title>SAPVault</title>
<polygon fill="white" stroke="none" points="-4,4 -4,-220.1 1758.82,-220.1 1758.82,4 -4,4"/>
<!-- EncryptionManager -->
<g id="node1" class="node">
<title>EncryptionManager</title>
<polygon fill="none" stroke="black" points="272.87,-110.3 272.87,-168.7 499.75,-168.7 499.75,-110.3 272.87,-110.3"/>
<text xml:space="preserve" text-anchor="middle" x="336.85" y="-135.3" font-family="Times,serif" font-size="14.00">EncryptionManager</text>
<polyline fill="none" stroke="black" points="400.83,-110.3 400.83,-168.7"/>
<text xml:space="preserve" text-anchor="start" x="408.83" y="-152.1" font-family="Times,serif" font-size="14.00">+ derive_key()</text>
<text xml:space="preserve" text-anchor="start" x="408.83" y="-135.3" font-family="Times,serif" font-size="14.00">+ encrypt()</text>
<text xml:space="preserve" text-anchor="start" x="408.83" y="-118.5" font-family="Times,serif" font-size="14.00">+ decrypt()</text>
</g>
<!-- VaultStorage -->
<g id="node2" class="node">
<title>VaultStorage</title>
<polygon fill="none" stroke="black" points="590.57,-93.9 590.57,-169.1 819.66,-169.1 819.66,-93.9 590.57,-93.9"/>
<text xml:space="preserve" text-anchor="middle" x="635.5" y="-127.3" font-family="Times,serif" font-size="14.00">VaultStorage</text>
<polyline fill="none" stroke="black" points="680.44,-93.9 680.44,-169.1"/>
<text xml:space="preserve" text-anchor="start" x="688.44" y="-152.5" font-family="Times,serif" font-size="14.00">- encryption_manager</text>
<text xml:space="preserve" text-anchor="start" x="688.44" y="-135.7" font-family="Times,serif" font-size="14.00">- systems</text>
<text xml:space="preserve" text-anchor="start" x="688.44" y="-118.9" font-family="Times,serif" font-size="14.00">+ load_vault()</text>
<text xml:space="preserve" text-anchor="start" x="688.44" y="-102.1" font-family="Times,serif" font-size="14.00">+ save_vault()</text>
</g>
<!-- EncryptionManager&#45;&gt;VaultStorage -->
<g id="edge1" class="edge">
<title>EncryptionManager-&gt;VaultStorage</title>
<path fill="none" stroke="black" d="M499.9,-136.66C525.46,-136.01 552.76,-135.32 578.82,-134.66"/>
<polygon fill="black" stroke="black" points="578.87,-138.16 588.78,-134.41 578.69,-131.17 578.87,-138.16"/>
<text xml:space="preserve" text-anchor="middle" x="545.16" y="-140.18" font-family="Times,serif" font-size="14.00">usado por</text>
</g>
<!-- ConnectionManager -->
<g id="node5" class="node">
<title>ConnectionManager</title>
<polygon fill="none" stroke="black" points="947.78,-102.3 947.78,-160.7 1180.9,-160.7 1180.9,-102.3 947.78,-102.3"/>
<text xml:space="preserve" text-anchor="middle" x="1012.93" y="-127.3" font-family="Times,serif" font-size="14.00">ConnectionManager</text>
<polyline fill="none" stroke="black" points="1078.08,-102.3 1078.08,-160.7"/>
<text xml:space="preserve" text-anchor="start" x="1086.08" y="-144.1" font-family="Times,serif" font-size="14.00">- systems</text>
<text xml:space="preserve" text-anchor="start" x="1086.08" y="-127.3" font-family="Times,serif" font-size="14.00">+ add_system()</text>
<text xml:space="preserve" text-anchor="start" x="1086.08" y="-110.5" font-family="Times,serif" font-size="14.00">+ get_system()</text>
</g>
<!-- VaultStorage&#45;&gt;ConnectionManager -->
<g id="edge2" class="edge">
<title>VaultStorage-&gt;ConnectionManager</title>
<path fill="none" stroke="black" d="M820.13,-131.5C857.11,-131.5 898.36,-131.5 936.24,-131.5"/>
<polygon fill="black" stroke="black" points="935.84,-135 945.84,-131.5 935.84,-128 935.84,-135"/>
<text xml:space="preserve" text-anchor="middle" x="883.72" y="-135.7" font-family="Times,serif" font-size="14.00">carrega sistemas</text>
</g>
<!-- System -->
<g id="node3" class="node">
<title>System</title>
<polygon fill="none" stroke="black" points="1314.94,-101.7 1314.94,-143.3 1463.2,-143.3 1463.2,-101.7 1314.94,-101.7"/>
<text xml:space="preserve" text-anchor="middle" x="1343.55" y="-118.3" font-family="Times,serif" font-size="14.00">System</text>
<polyline fill="none" stroke="black" points="1372.17,-101.7 1372.17,-143.3"/>
<text xml:space="preserve" text-anchor="start" x="1380.17" y="-126.7" font-family="Times,serif" font-size="14.00">- name</text>
<text xml:space="preserve" text-anchor="start" x="1380.17" y="-109.9" font-family="Times,serif" font-size="14.00">- connections</text>
</g>
<!-- Connection -->
<g id="node4" class="node">
<title>Connection</title>
<polygon fill="none" stroke="black" points="1597.23,-19.5 1597.23,-111.5 1754.82,-111.5 1754.82,-19.5 1597.23,-19.5"/>
<text xml:space="preserve" text-anchor="middle" x="1637.5" y="-61.3" font-family="Times,serif" font-size="14.00">Connection</text>
<polyline fill="none" stroke="black" points="1677.78,-19.5 1677.78,-111.5"/>
<text xml:space="preserve" text-anchor="start" x="1685.78" y="-94.9" font-family="Times,serif" font-size="14.00">- env</text>
<text xml:space="preserve" text-anchor="start" x="1685.78" y="-78.1" font-family="Times,serif" font-size="14.00">- user</text>
<text xml:space="preserve" text-anchor="start" x="1685.78" y="-61.3" font-family="Times,serif" font-size="14.00">- client</text>
<text xml:space="preserve" text-anchor="start" x="1685.78" y="-44.5" font-family="Times,serif" font-size="14.00">- language</text>
<text xml:space="preserve" text-anchor="start" x="1685.78" y="-27.7" font-family="Times,serif" font-size="14.00">- password</text>
</g>
<!-- System&#45;&gt;Connection -->
<g id="edge4" class="edge">
<title>System-&gt;Connection</title>
<path fill="none" stroke="black" d="M1463.45,-107.82C1500.75,-100.36 1546.39,-91.23 1585.72,-83.36"/>
<polygon fill="black" stroke="black" points="1586.3,-86.82 1595.42,-81.42 1584.92,-79.95 1586.3,-86.82"/>
<text xml:space="preserve" text-anchor="middle" x="1552.98" y="-98.2" font-family="Times,serif" font-size="14.00">contém *</text>
</g>
<!-- ConnectionManager&#45;&gt;System -->
<g id="edge3" class="edge">
<title>ConnectionManager-&gt;System</title>
<path fill="none" stroke="black" d="M1181.4,-128.26C1221.69,-127.14 1266.07,-125.9 1303.35,-124.86"/>
<polygon fill="black" stroke="black" points="1303.27,-128.37 1313.16,-124.59 1303.07,-121.37 1303.27,-128.37"/>
<text xml:space="preserve" text-anchor="middle" x="1225.15" y="-131.74" font-family="Times,serif" font-size="14.00">contém *</text>
</g>
<!-- AuthService -->
<g id="node6" class="node">
<title>AuthService</title>
<polygon fill="none" stroke="black" points="282.2,-49.7 282.2,-91.3 490.42,-91.3 490.42,-49.7 282.2,-49.7"/>
<text xml:space="preserve" text-anchor="middle" x="325.19" y="-66.3" font-family="Times,serif" font-size="14.00">AuthService</text>
<polyline fill="none" stroke="black" points="368.18,-49.7 368.18,-91.3"/>
<text xml:space="preserve" text-anchor="start" x="376.18" y="-74.7" font-family="Times,serif" font-size="14.00">- vault_storage</text>
<text xml:space="preserve" text-anchor="start" x="376.18" y="-57.9" font-family="Times,serif" font-size="14.00">+ get_connection()</text>
</g>
<!-- AuthService&#45;&gt;VaultStorage -->
<g id="edge5" class="edge">
<title>AuthService-&gt;VaultStorage</title>
<path fill="none" stroke="black" d="M490.61,-90.39C518.87,-95.83 549.8,-101.79 579.13,-107.43"/>
<polygon fill="black" stroke="black" points="578.32,-110.84 588.8,-109.3 579.64,-103.97 578.32,-110.84"/>
<text xml:space="preserve" text-anchor="middle" x="545.16" y="-108.85" font-family="Times,serif" font-size="14.00">consulta</text>
</g>
<!-- AuthService&#45;&gt;Connection -->
<g id="edge6" class="edge">
<title>AuthService-&gt;Connection</title>
<path fill="none" stroke="black" d="M490.75,-68.04C552.65,-66.78 632.88,-65.5 704.12,-65.5 704.12,-65.5 704.12,-65.5 1390.07,-65.5 1455.56,-65.5 1529.52,-65.5 1585.67,-65.5"/>
<polygon fill="black" stroke="black" points="1585.5,-69 1595.5,-65.5 1585.5,-62 1585.5,-69"/>
<text xml:space="preserve" text-anchor="middle" x="1064.34" y="-69.7" font-family="Times,serif" font-size="14.00">retorna</text>
</g>
<!-- SapLoginService -->
<g id="node7" class="node">
<title>SapLoginService</title>
<polygon fill="none" stroke="black" points="1269.4,-0.5 1269.4,-36.5 1508.74,-36.5 1508.74,-0.5 1269.4,-0.5"/>
<text xml:space="preserve" text-anchor="middle" x="1325.61" y="-14.4" font-family="Times,serif" font-size="14.00">SapLoginService</text>
<polyline fill="none" stroke="black" points="1381.82,-0.7 1381.82,-36.5"/>
<text xml:space="preserve" text-anchor="start" x="1389.82" y="-14.4" font-family="Times,serif" font-size="14.00">+ login(connection)</text>
</g>
<!-- SapLoginService&#45;&gt;Connection -->
<g id="edge7" class="edge">
<title>SapLoginService-&gt;Connection</title>
<path fill="none" stroke="black" d="M1509.22,-24.58C1532.57,-26.93 1556.77,-30.19 1579.23,-34.7 1581.42,-35.14 1583.62,-35.61 1585.84,-36.11"/>
<polygon fill="black" stroke="black" points="1584.97,-39.5 1595.52,-38.47 1586.63,-32.7 1584.97,-39.5"/>
<text xml:space="preserve" text-anchor="middle" x="1552.98" y="-38.9" font-family="Times,serif" font-size="14.00">usa</text>
</g>
<!-- DesktopUI -->
<g id="node8" class="node">
<title>DesktopUI</title>
<polygon fill="none" stroke="black" points="0,-105.3 0,-163.7 218.21,-163.7 218.21,-105.3 0,-105.3"/>
<text xml:space="preserve" text-anchor="middle" x="38.72" y="-130.3" font-family="Times,serif" font-size="14.00">DesktopUI</text>
<polyline fill="none" stroke="black" points="77.43,-105.3 77.43,-163.7"/>
<text xml:space="preserve" text-anchor="start" x="85.43" y="-147.1" font-family="Times,serif" font-size="14.00">- connection_manager</text>
<text xml:space="preserve" text-anchor="start" x="85.43" y="-130.3" font-family="Times,serif" font-size="14.00">- auth_service</text>
<text xml:space="preserve" text-anchor="start" x="85.43" y="-113.5" font-family="Times,serif" font-size="14.00">+ run()</text>
</g>
<!-- DesktopUI&#45;&gt;ConnectionManager -->
<g id="edge8" class="edge">
<title>DesktopUI-&gt;ConnectionManager</title>
<path fill="none" stroke="black" d="M203.06,-164.15C225.67,-170.1 249.95,-175.46 272.87,-178.5 513.78,-210.49 577.75,-201.62 819.66,-178.5 857.92,-174.84 899.1,-168.03 936.52,-160.7"/>
<polygon fill="black" stroke="black" points="936.88,-164.2 946,-158.82 935.51,-157.34 936.88,-164.2"/>
<text xml:space="preserve" text-anchor="middle" x="545.16" y="-203.5" font-family="Times,serif" font-size="14.00">usa</text>
</g>
<!-- DesktopUI&#45;&gt;AuthService -->
<g id="edge9" class="edge">
<title>DesktopUI-&gt;AuthService</title>
<path fill="none" stroke="black" d="M218.48,-109.3C239.64,-104.38 261.78,-99.23 282.74,-94.35"/>
<polygon fill="black" stroke="black" points="283.5,-97.77 292.45,-92.09 281.92,-90.95 283.5,-97.77"/>
<text xml:space="preserve" text-anchor="middle" x="245.54" y="-108.62" font-family="Times,serif" font-size="14.00">usa</text>
</g>
</g>
</svg>